<svg version="1.1" xmlns="http://www.w3.org/2000/svg" xmlns:xlink="http://www.w3.org/1999/xlink" width="18" height="17"><defs/><g><path fill="rgb(245,197,6)" stroke="none" paint-order="stroke fill markers" fill-rule="evenodd" d=" M 11.370819091796875 8.9768688082695 C 11.370819091796875 8.9768688082695 11.370819091796875 8.01908826828003 11.370819091796875 8.01908826828003 C 11.370819091796875 8.01908826828003 16.999862670898438 8.01908826828003 16.999862670898438 8.01908826828003 C 16.999862670898438 8.01908826828003 16.999862670898438 8.9768688082695 16.999862670898438 8.9768688082695 C 16.999862670898438 8.9768688082695 11.370819091796875 8.9768688082695 11.370819091796875 8.9768688082695 Z M 11.184852600097656 6.176839470863342 C 11.184852600097656 6.176839470863342 16.26000213623047 3.7486478090286255 16.26000213623047 3.7486478090286255 C 16.26000213623047 3.7486478090286255 16.67565155029297 4.612103581428528 16.67565155029297 4.612103581428528 C 16.67565155029297 4.612103581428528 11.5992431640625 7.040572941303253 11.5992431640625 7.040572941303253 C 11.5992431640625 7.040572941303253 11.184852600097656 6.176839470863342 11.184852600097656 6.176839470863342 Z M 10.751235961914062 4.040878713130951 C 10.751235961914062 4.040878713130951 14.239089965820312 1.0002703070640564 14.239089965820312 1.0002703070640564 C 14.239089965820312 1.0002703070640564 14.758956909179688 1.5934333205223083 14.758956909179688 1.5934333205223083 C 14.758956909179688 1.5934333205223083 11.269767761230469 4.63459712266922 11.269767761230469 4.63459712266922 C 11.269767761230469 4.63459712266922 10.751235961914062 4.040878713130951 10.751235961914062 4.040878713130951 Z M 5.260704040527344 11.34729927778244 C 5.260704040527344 11.34729927778244 5.260704040527344 8.794884026050568 5.260704040527344 8.794884026050568 C 5.260704040527344 8.794884026050568 5.260704040527344 8.200795352458954 5.260704040527344 8.200795352458954 C 5.260704040527344 8.200795352458954 5.260704040527344 5.648287534713745 5.260704040527344 5.648287534713745 C 6.708381652832031 4.328296184539795 8.469017028808594 3.652656853199005 9.676025390625 2.178728222846985 C 9.676025390625 2.178728222846985 9.676025390625 8.200795352458954 9.676025390625 8.200795352458954 C 9.676025390625 8.200795352458954 9.676025390625 8.794884026050568 9.676025390625 8.794884026050568 C 9.676025390625 8.794884026050568 9.676025390625 14.816488325595856 9.676025390625 14.816488325595856 C 8.469017028808594 13.342004299163818 6.708686828613281 12.666364967823029 5.260704040527344 11.34729927778244 Z M 1.99993896484375 5.658562362194061 C 1.99993896484375 5.658562362194061 4.9149017333984375 5.658562362194061 4.9149017333984375 5.658562362194061 C 4.9149017333984375 5.658562362194061 4.9149017333984375 11.304904043674469 4.9149017333984375 11.304904043674469 C 4.9149017333984375 11.304904043674469 1.99993896484375 11.304904043674469 1.99993896484375 11.304904043674469 C 1.99993896484375 11.304904043674469 1.99993896484375 5.658562362194061 1.99993896484375 5.658562362194061 Z M 14.758956909179688 15.40548586845398 C 14.758956909179688 15.40548586845398 14.240425109863281 15.999481976032257 14.240425109863281 15.999481976032257 C 14.240425109863281 15.999481976032257 10.751235961914062 12.957947909832 10.751235961914062 12.957947909832 C 10.751235961914062 12.957947909832 11.271064758300781 12.36450719833374 11.271064758300781 12.36450719833374 C 11.271064758300781 12.36450719833374 14.758956909179688 15.40548586845398 14.758956909179688 15.40548586845398 Z M 11.408775329589844 10.006295442581177 C 11.408775329589844 10.006295442581177 16.48388671875 12.433931708335876 16.48388671875 12.433931708335876 C 16.48388671875 12.433931708335876 16.06957244873047 13.29831314086914 16.06957244873047 13.29831314086914 C 16.06957244873047 13.29831314086914 10.993125915527344 10.86947351694107 10.993125915527344 10.86947351694107 C 10.993125915527344 10.86947351694107 11.408775329589844 10.006295442581177 11.408775329589844 10.006295442581177 Z"/></g></svg>